<svg width="147" height="55" viewBox="0 0 147 55" fill="none" xmlns="http://www.w3.org/2000/svg">
<path d="M32.6556 35.43C32.6556 37.3433 32.259 39.1167 31.4656 40.75C30.6723 42.3833 29.599 43.8767 28.2456 45.23C26.8923 46.5367 25.3056 47.7033 23.4856 48.73C21.7123 49.71 19.8223 50.55 17.8156 51.25C15.8556 51.9033 13.8256 52.4167 11.7256 52.79C9.67229 53.1167 7.68896 53.28 5.77563 53.28C4.04896 53.28 2.43896 53.14 0.945625 52.86C3.18563 44.6933 4.95896 36.48 6.26563 28.22C7.61896 19.9133 8.90229 11.56 10.1156 3.16C12.5423 2.64666 15.0623 2.20333 17.6756 1.83C20.289 1.41 22.9956 1.2 25.7956 1.2C26.9623 1.2 28.199 1.34 29.5056 1.62C30.8123 1.9 32.0023 2.41333 33.0756 3.16C34.149 3.90666 35.0356 4.88666 35.7356 6.1C36.4823 7.31333 36.8556 8.85333 36.8556 10.72C36.8556 12.4933 36.5523 14.15 35.9456 15.69C35.3856 17.23 34.639 18.63 33.7056 19.89C32.819 21.15 31.7923 22.2467 30.6256 23.18C29.459 24.0667 28.269 24.7433 27.0556 25.21C27.6623 25.5367 28.2923 26.0033 28.9456 26.61C29.599 27.2167 30.2056 27.94 30.7656 28.78C31.3256 29.5733 31.769 30.53 32.0956 31.65C32.469 32.77 32.6556 34.03 32.6556 35.43ZM16.6256 28.15C16.439 29.27 16.2523 30.2733 16.0656 31.16C15.9256 32 15.7856 32.8167 15.6456 33.61C15.5056 34.4033 15.3423 35.2433 15.1556 36.13C15.0156 36.97 14.8523 37.9733 14.6656 39.14C15.5523 39.0467 16.5556 38.8833 17.6756 38.65C18.7956 38.4167 19.869 38.0667 20.8956 37.6C21.9223 37.0867 22.7856 36.4333 23.4856 35.64C24.1856 34.8 24.5356 33.7967 24.5356 32.63C24.5356 31.79 24.3023 31.09 23.8356 30.53C23.4156 29.97 22.8556 29.5033 22.1556 29.13C21.5023 28.7567 20.779 28.5 19.9856 28.36C19.1923 28.1733 18.4456 28.08 17.7456 28.08C17.5123 28.08 17.3023 28.08 17.1156 28.08C16.9756 28.08 16.8123 28.1033 16.6256 28.15ZM19.7756 11.21C19.6823 11.7233 19.5656 12.33 19.4256 13.03C19.3323 13.73 19.2156 14.4767 19.0756 15.27C18.9356 16.0167 18.7723 16.7633 18.5856 17.51C18.4456 18.2567 18.329 18.91 18.2356 19.47C19.2623 19.2833 20.289 19.0267 21.3156 18.7C22.3423 18.3733 23.2523 18.0233 24.0456 17.65C24.8856 17.23 25.539 16.7867 26.0056 16.32C26.519 15.8533 26.7756 15.34 26.7756 14.78C26.7756 14.08 26.5656 13.52 26.1456 13.1C25.7256 12.6333 25.1656 12.26 24.4656 11.98C23.8123 11.7 23.1123 11.5133 22.3656 11.42C21.6656 11.28 21.0356 11.21 20.4756 11.21H19.7756ZM42.017 51.6C41.597 51.6 40.7804 51.67 39.567 51.81C38.3537 51.9033 37.0937 52.0433 35.787 52.23C34.4804 52.37 33.2904 52.51 32.217 52.65C31.1904 52.79 30.6304 52.8833 30.537 52.93C31.097 50.9233 31.657 48.7067 32.217 46.28C32.777 43.8067 33.337 41.24 33.897 38.58C34.5037 35.8733 35.0637 33.1433 35.577 30.39C36.137 27.6367 36.6737 24.9767 37.187 22.41C38.3537 16.4367 39.497 10.3 40.617 4L51.537 2.25C50.3237 8.50333 49.1104 14.64 47.897 20.66C47.3837 23.2267 46.847 25.8867 46.287 28.64C45.7737 31.3933 45.2604 34.1233 44.747 36.83C44.2804 39.5367 43.7904 42.1733 43.277 44.74C42.8104 47.26 42.3904 49.5467 42.017 51.6ZM83.0507 26.33C82.724 31.09 81.7907 35.2433 80.2507 38.79C78.7107 42.29 76.844 45.23 74.6507 47.61C72.504 49.99 70.1707 51.7633 67.6507 52.93C65.1774 54.0967 62.8207 54.68 60.5807 54.68C58.854 54.68 57.1974 54.3067 55.6107 53.56C54.0707 52.8133 52.7174 51.6933 51.5507 50.2C50.4307 48.66 49.544 46.7467 48.8907 44.46C48.2374 42.1733 47.9107 39.49 47.9107 36.41C47.9107 30.39 48.774 25.14 50.5007 20.66C52.2274 16.18 54.3974 12.4467 57.0107 9.46C59.6707 6.47333 62.494 4.25666 65.4807 2.81C68.514 1.36333 71.3374 0.639998 73.9507 0.639998C75.8174 0.639998 77.4274 0.966665 78.7807 1.62C80.1807 2.27333 81.324 3.16 82.2107 4.28C83.0974 5.35333 83.7274 6.63666 84.1007 8.13C84.5207 9.57667 84.7307 11.1167 84.7307 12.75L75.1407 14.57C74.7207 12.7033 74.1607 11.3733 73.4607 10.58C72.7607 9.78667 71.9674 9.39 71.0807 9.39C69.914 9.39 68.6307 10.23 67.2307 11.91C65.8307 13.5433 64.524 15.6667 63.3107 18.28C62.0974 20.8933 61.0707 23.7633 60.2307 26.89C59.3907 30.0167 58.924 33.0967 58.8307 36.13C58.8307 39.0233 59.2507 41.1 60.0907 42.36C60.9774 43.5733 62.0974 44.18 63.4507 44.18C64.384 44.18 65.3407 43.9467 66.3207 43.48C67.3474 43.0133 68.2574 42.36 69.0507 41.52C69.844 40.6333 70.4974 39.63 71.0107 38.51C71.5707 37.3433 71.874 36.0833 71.9207 34.73L64.4307 35.85L65.7607 28.92C67.954 28.64 70.1007 28.36 72.2007 28.08C73.974 27.8467 75.8407 27.5667 77.8007 27.24C79.8074 26.9133 81.5574 26.61 83.0507 26.33ZM90.3323 36.48C90.3323 33.96 90.6823 31.72 91.3823 29.76C92.129 27.8 93.039 26.0733 94.1123 24.58C95.1857 23.04 96.329 21.6867 97.5423 20.52C98.8023 19.3067 99.969 18.2333 101.042 17.3C102.116 16.32 103.002 15.4567 103.702 14.71C104.402 13.9167 104.752 13.1467 104.752 12.4C104.752 12.12 104.566 11.7467 104.192 11.28C103.819 10.7667 103.236 10.51 102.442 10.51C101.556 10.51 100.459 10.8833 99.1523 11.63C97.8923 12.33 96.609 13.17 95.3023 14.15C93.9957 15.0833 92.6423 16.18 91.2423 17.44L87.5323 8.83C89.9123 6.68333 92.5957 5.00333 95.5823 3.79C98.569 2.53 101.602 1.9 104.682 1.9C106.176 1.9 107.576 2.06333 108.882 2.39C110.236 2.67 111.402 3.18333 112.382 3.93C113.409 4.63 114.226 5.56333 114.832 6.73C115.439 7.85 115.742 9.22666 115.742 10.86C115.742 13.1467 115.369 15.1067 114.622 16.74C113.876 18.3267 112.942 19.7267 111.822 20.94C110.749 22.1533 109.512 23.2733 108.112 24.3C106.759 25.3267 105.452 26.3767 104.192 27.45C102.932 28.5233 101.789 29.7133 100.762 31.02C99.7357 32.3267 99.0123 33.8667 98.5923 35.64L94.4623 36.06L90.3323 36.48ZM101.882 46.63C101.882 47.61 101.672 48.5667 101.252 49.5C100.832 50.4333 100.202 51.2967 99.3623 52.09C98.5223 52.8367 97.4723 53.4433 96.2123 53.91C94.999 54.3767 93.6223 54.61 92.0823 54.61C90.2157 54.61 88.839 54.05 87.9523 52.93C87.0657 51.7633 86.6223 50.3867 86.6223 48.8C86.6223 47.9133 86.7857 47.0267 87.1123 46.14C87.439 45.2067 87.929 44.3667 88.5823 43.62C89.2823 42.8733 90.1223 42.2667 91.1023 41.8C92.0823 41.3333 93.2023 41.1 94.4623 41.1C97.029 41.1 98.8957 41.66 100.062 42.78C101.276 43.9 101.882 45.1833 101.882 46.63ZM121.026 36.48C121.026 33.96 121.376 31.72 122.076 29.76C122.822 27.8 123.732 26.0733 124.806 24.58C125.879 23.04 127.022 21.6867 128.236 20.52C129.496 19.3067 130.662 18.2333 131.736 17.3C132.809 16.32 133.696 15.4567 134.396 14.71C135.096 13.9167 135.446 13.1467 135.446 12.4C135.446 12.12 135.259 11.7467 134.886 11.28C134.512 10.7667 133.929 10.51 133.136 10.51C132.249 10.51 131.152 10.8833 129.846 11.63C128.586 12.33 127.302 13.17 125.996 14.15C124.689 15.0833 123.336 16.18 121.936 17.44L118.226 8.83C120.606 6.68333 123.289 5.00333 126.276 3.79C129.262 2.53 132.296 1.9 135.376 1.9C136.869 1.9 138.269 2.06333 139.576 2.39C140.929 2.67 142.096 3.18333 143.076 3.93C144.102 4.63 144.919 5.56333 145.526 6.73C146.132 7.85 146.436 9.22666 146.436 10.86C146.436 13.1467 146.062 15.1067 145.316 16.74C144.569 18.3267 143.636 19.7267 142.516 20.94C141.442 22.1533 140.206 23.2733 138.806 24.3C137.452 25.3267 136.146 26.3767 134.886 27.45C133.626 28.5233 132.482 29.7133 131.456 31.02C130.429 32.3267 129.706 33.8667 129.286 35.64L125.156 36.06L121.026 36.48ZM132.576 46.63C132.576 47.61 132.366 48.5667 131.946 49.5C131.526 50.4333 130.896 51.2967 130.056 52.09C129.216 52.8367 128.166 53.4433 126.906 53.91C125.692 54.3767 124.316 54.61 122.776 54.61C120.909 54.61 119.532 54.05 118.646 52.93C117.759 51.7633 117.316 50.3867 117.316 48.8C117.316 47.9133 117.479 47.0267 117.806 46.14C118.132 45.2067 118.622 44.3667 119.276 43.62C119.976 42.8733 120.816 42.2667 121.796 41.8C122.776 41.3333 123.896 41.1 125.156 41.1C127.722 41.1 129.589 41.66 130.756 42.78C131.969 43.9 132.576 45.1833 132.576 46.63Z" fill="#88D18A"/>
</svg>
