<svg width="200" height="170" viewBox="0 0 200 170" fill="none" xmlns="http://www.w3.org/2000/svg">
<path d="M180.754 79.4629C187.949 79.4629 193.782 73.6302 193.782 66.4351C193.782 59.2401 187.949 53.4073 180.754 53.4073C173.559 53.4073 167.726 59.2401 167.726 66.4351C167.726 73.6302 173.559 79.4629 180.754 79.4629Z" stroke="#C1C1C1" stroke-miterlimit="10" stroke-dasharray="12.28 12.28"/>
<path d="M150.094 17.4611C155.433 19.2703 160.741 21.4778 164.476 24.9444C168.211 28.4111 170.081 33.3944 167.841 37.5648C164.848 43.1352 155.367 46.3741 155.322 52.4092C155.291 56.7315 160.435 60.0296 165.63 61.6018C170.822 63.1722 176.572 63.7389 181.296 66.0352C188.424 69.5 191.767 76.2074 193.135 82.6426C194.556 89.3241 193.98 96.9315 187.881 101.78C180.302 107.806 167.765 107.126 157.033 105.841C142.713 104.126 128.456 102.111 114.202 100.098C82.9537 95.6833 51.7056 91.2666 20.4574 86.8518C17.1074 86.3778 13.6204 85.8611 10.8981 84.274C5.49259 81.124 5.03333 74.6203 8.17592 69.9778C11.3185 65.3352 17.1315 62.1815 22.9056 59.45C28.6796 56.7203 34.7759 54.1389 39.1019 50.1074C43.4259 46.0759 45.5778 40.1092 42.3056 35.5203C39.5333 31.6333 33.5759 29.5555 30.9796 25.5963C27.5574 20.3796 31.4944 13.7166 37.7037 10.387C43.913 7.05738 121.887 7.89813 150.094 17.4611Z" fill="#F7F7F7"/>
<path d="M162.389 75.4963L160.028 75.9666L159.689 74.2685C159.459 73.1129 158.389 72.35 157.306 72.5648L145.667 74.887C144.583 75.1037 143.887 76.2185 144.119 77.374L144.457 79.0722L142.096 79.5426C141.828 79.5963 141.656 79.874 141.711 80.1592L144.183 92.5574C144.241 92.8426 144.507 93.0333 144.776 92.9796L165.072 88.9314C165.341 88.8777 165.513 88.6 165.457 88.3148L162.985 75.9166C162.924 75.6333 162.657 75.4426 162.389 75.4963ZM159.465 76.0796L145.017 78.9611L144.678 77.2629C144.513 76.437 145.009 75.6407 145.783 75.487L157.422 73.1648C158.196 73.0111 158.961 73.5555 159.126 74.3814L159.465 76.0796Z" fill="#88D18A"/>
<path d="M154.652 83.65L152.228 84.1333L141.948 80.9129L142.017 80.8148L152.254 84.0222L154.585 83.5574L162.809 76.6666L162.909 76.7314L154.652 83.65Z" fill="white"/>
<path d="M99.087 56.0666C99.087 56.0666 96.8556 55.3314 96.4167 55.5888C95.9778 55.8463 93.7111 58.8944 93.7111 58.8944L96.7463 60.3426L100.183 58.1129L99.087 56.0666ZM152.65 70.924C152.65 70.924 154.469 74.6092 154.087 75.2666C153.704 75.9259 149.587 76.6666 149.587 76.6666L148.485 72.9703L150.45 70.9222H152.65V70.924Z" fill="#FCD2B1"/>
<path d="M121.08 130.08L111.485 133.193H123.165V130.08H121.08ZM144.859 130.08L136.096 133.193H147.678L147.083 130.08H144.859Z" fill="#0A3951"/>
<path d="M125.967 66.2907L119.911 131.498H123.817C123.817 131.498 133.102 104.431 130.004 100.85C131 96.4148 137.343 78.8444 135.878 76.9685C134.413 75.0925 131.728 65.2981 131.728 65.2981L125.967 66.2907Z" fill="#083047"/>
<path d="M127.411 68.0481L130.559 72.3833L143.541 131.498H147.665C147.665 131.498 148.007 101.843 145.052 98.0981C143.87 91.3981 143.311 68.6074 142.439 66.1092C138.498 65.9129 128.152 64.6981 128.152 64.6981L127.411 68.0481Z" fill="#0A3951"/>
<path d="M149.42 36.1111C147.409 32.9518 141.581 33.2425 137.13 32.824C135.841 32.7037 134.765 32.1611 133.85 32.037L127.789 33.8629C127.441 33.937 122.57 34.2944 122.013 34.6296C121.946 34.7074 116.67 53.2703 99.05 55.7407C99.2352 57.037 99.05 58.8888 99.05 58.8888C99.05 58.8888 117.196 59.4148 122.9 48.7851C124.152 60.4277 125.967 66.2907 125.967 66.2907L142.633 67.024C142.633 67.024 143.493 49.2611 145.344 45.187C154.974 51.2981 149.604 71.4833 149.604 71.4833C149.604 71.4833 150.344 71.8537 152.752 71.4833C158.309 57.4074 152.013 40.1851 149.42 36.1111Z" fill="white"/>
<path d="M130.004 35.6018L131.944 38.3722L135.878 32.3851L134.448 31.4814L130.004 35.6018ZM130.004 35.6018L129.4 38.3722L127.411 34.1166L128.152 32.824L130.004 35.6018Z" fill="#F2F2F2"/>
<path d="M129.598 37.6648L130.004 38.9185L128.039 60.5944C128.039 60.5944 130.548 70.5833 130.717 69.9722C130.885 69.3611 133.344 61.4037 133.344 61.4037L131.106 38.95L131.302 37.6518L130.006 35.6L129.598 37.6648Z" fill="#88D18A"/>
<path d="M134.456 15.6149C136.493 17.2815 137.419 21.1704 136.493 23.2075C135.567 25.2445 133.159 26.3556 132.233 27.4667C130.381 25.2445 127.789 23.763 127.789 23.763L129.085 18.2075L131.678 16.9112L134.456 15.6149Z" fill="#1A535C"/>
<path d="M128.159 28.5V33.3148L130.011 36.0926L134.456 31.9722L132.696 23.4445L128.159 28.5Z" fill="#FCD2B1"/>
<path d="M122.472 17.2204C122.991 22.9815 120.235 28.5611 123.337 30.3167C124.03 31.1889 131 32.15 131.865 29.5315C132.73 26.9129 134.933 19.4907 133.202 17.2204C131.472 14.95 122.472 17.2204 122.472 17.2204Z" fill="#FFE3CA"/>
<path d="M130.567 17.837C130.196 19.3185 130.567 22.0963 132.048 22.4667C132.048 23.1741 131.972 24.4093 131.919 25.2111C131.911 25.3162 131.925 25.4216 131.959 25.5213C131.993 25.621 132.047 25.713 132.116 25.7919C132.186 25.8708 132.271 25.9351 132.366 25.981C132.46 26.0269 132.563 26.0535 132.669 26.0593C133.017 26.0778 133.344 26.0741 133.344 25.9852C133.344 25.8 134.456 17.837 134.456 17.837H130.567Z" fill="#1A535C"/>
<path d="M134.767 23.9502C135.059 22.8635 134.761 21.8394 134.102 21.6627C133.443 21.4859 132.673 22.2235 132.381 23.3101C132.09 24.3967 132.388 25.4209 133.047 25.5976C133.706 25.7744 134.476 25.0368 134.767 23.9502Z" fill="#FFE3CA"/>
<path d="M132.233 22.2815L132.048 25.6148L132.974 25.8L133.344 21.1704L132.233 22.2815ZM134.522 18.1889C131.45 18.931 128.316 19.3836 125.159 19.5408C123.531 19.6222 121.722 19.5593 120.533 18.4445C119.554 17.5259 119.233 16.0222 119.6 14.7296C119.967 13.4371 120.948 12.3704 122.131 11.7352C123.315 11.1 124.681 10.8667 126.024 10.8852C125.515 10.7982 125.072 11.3871 125.172 11.8945C125.272 12.4019 125.752 12.763 126.254 12.8908C126.756 13.0185 127.281 12.9593 127.798 12.9185C129.093 12.8185 130.407 12.8426 131.665 13.163C132.922 13.4815 134.174 14.163 134.77 15.3167C135.367 16.4704 135.046 18.1352 133.87 18.6834" fill="#1A535C"/>
<path d="M12.6148 133.193H187.383C188.709 133.193 189.783 134.267 189.783 135.593V148.339C189.783 149.665 188.709 150.739 187.383 150.739H12.6148C11.2889 150.739 10.2148 149.665 10.2148 148.339V135.593C10.2148 134.267 11.2889 133.193 12.6148 133.193Z" fill="#F2F2F2"/>
<path d="M93.6722 56.0666C93.6722 56.0666 95.9056 55.3314 96.3426 55.5888C96.7796 55.8463 99.0482 58.8944 99.0482 58.8944L96.013 60.3426L92.5759 58.1129L93.6722 56.0666ZM40.1093 70.924C40.1093 70.924 38.2908 76.35 38.6722 77.3203C39.0556 78.2907 43.1722 79.3814 43.1722 79.3814L42.7889 75.1537L43.8426 76.8351L44.3222 75.1537L42.3111 70.9259H40.1093V70.924Z" fill="#FCD2B1"/>
<path d="M71.6815 130.08L81.276 133.193H69.5945V130.08H71.6815ZM47.9019 130.08L56.6649 133.193H45.0834L45.6778 130.08H47.9019Z" fill="#0A3951"/>
<path d="M66.3556 67.074L72.8481 131.498H68.9426C68.9426 131.498 59.6574 104.431 62.7556 100.85C61.7593 96.4148 55.4167 78.8444 56.8815 76.9685C58.3463 75.0925 61.0315 65.2981 61.0315 65.2981L66.3556 67.074Z" fill="#083047"/>
<path d="M65.3499 68.0481L62.2018 72.3833L49.2203 131.498H45.0962C45.0962 131.498 44.7536 101.843 47.7092 98.0981C48.8907 91.3981 49.6277 68.0481 51.7962 66.4722C55.737 66.2759 64.6092 64.6981 64.6092 64.6981L65.3499 68.0481Z" fill="#0A3951"/>
<path d="M66.6741 75L62.6 66.1111L54.4519 75L50.7482 68.3334C50.7482 68.3334 49.2667 49.2593 47.4148 45.1852C37.7852 51.2963 43.1556 71.4815 43.1556 71.4815C43.1556 71.4815 42.4148 71.8519 40.0074 71.4815C34.4519 57.4074 40.7482 40.1852 43.3408 36.1111C45.3519 32.9519 51.2593 32.2426 55.7111 31.8241C57 31.7037 58.8148 32.7371 59.7296 32.613C59.7296 32.613 63.8685 32.4741 67.3871 33.4519L67.3908 33.4537C68.9093 33.876 70.1908 34.2945 70.7482 34.6297C71.8593 35.926 66.6741 75 66.6741 75Z" fill="#1A535C"/>
<path d="M70.7482 34.6296C70.7482 34.6296 73.8963 52.963 93.7111 55.7407C93.5259 57.037 93.7111 58.8889 93.7111 58.8889C93.7111 58.8889 74.637 59.4445 69.4519 47.963C67.7852 37.037 70.7482 34.6296 70.7482 34.6296Z" fill="#1A535C"/>
<path d="M66.3555 33.174L62.8407 55.2092L55.7111 31.824C56.9999 31.7037 58.1666 31.6055 59.0814 31.4814L66.3555 33.174Z" fill="white"/>
<path d="M58.3111 15.124C56.2741 16.7907 55.3481 20.6796 56.2741 22.7166C57.2 24.7537 59.6074 25.8648 60.5333 26.9759C62.3852 24.7537 64.9778 23.2722 64.9778 23.2722L63.6815 17.7166L61.0889 16.4203L58.3111 15.124Z" fill="#1A535C"/>
<path d="M64.6075 28.0093V32.8241L62.7556 35.6019L58.3112 31.4815L60.0704 22.9537L64.6075 28.0093Z" fill="#FCD2B1"/>
<path d="M71.0889 16.7908C70.5333 22.9019 70.9037 29.7537 70.163 30.6797C69.4222 31.6056 62.0148 31.6056 61.0889 28.8278C60.163 26.05 57.7555 19.1982 59.6074 16.7908C61.4592 14.3834 71.0889 16.7908 71.0889 16.7908Z" fill="#FFE3CA"/>
<path d="M62.2 17.3463C62.5704 18.8278 62.2 21.6056 60.7186 21.9759C60.7186 22.6834 60.7945 23.9185 60.8482 24.7204C60.8553 24.8255 60.8415 24.9309 60.8076 25.0306C60.7736 25.1303 60.7202 25.2223 60.6504 25.3012C60.5807 25.3801 60.4959 25.4443 60.4011 25.4902C60.3063 25.5361 60.2034 25.5627 60.0982 25.5685C59.75 25.5871 59.4223 25.5834 59.4223 25.4945C59.4223 25.3093 58.3112 17.3463 58.3112 17.3463H62.2Z" fill="#1A535C"/>
<path d="M59.7169 25.1153C60.3758 24.9386 60.6737 23.9144 60.3822 22.8278C60.0907 21.7412 59.3203 21.0036 58.6614 21.1803C58.0025 21.3571 57.7047 22.3812 57.9962 23.4678C58.2876 24.5545 59.0581 25.292 59.7169 25.1153Z" fill="#FFE3CA"/>
<path d="M60.5333 21.7907L60.7185 25.1241L59.7925 25.3092L59.4222 20.6796L60.5333 21.7907ZM61.3388 17.6148C62.4018 18.4611 63.8129 18.8574 65.1592 18.687C66.2259 18.5518 67.2388 18.0833 68.3129 18.0574C69.1351 18.037 69.9388 18.2796 70.7574 18.3574C71.7018 18.4463 72.6944 18.3037 73.4925 17.7907C74.2907 17.2778 74.8574 16.3555 74.7888 15.4092C74.6944 14.0889 73.4148 13.1018 72.1074 12.887C70.8 12.6722 69.4777 13.0463 68.2074 13.4241C66.9388 13.8 65.6203 14.187 64.3111 13.9963C63.3944 13.8629 62.537 13.45 61.6222 13.2981C60.6314 13.1315 59.5888 13.2833 58.687 13.724C58.0055 14.0574 57.3944 14.5629 57.0185 15.2241C56.6425 15.8852 56.5277 16.7055 56.7888 17.4185C57.024 18.0592 57.5462 18.5722 58.1574 18.8759C58.7685 19.1796 59.4629 19.287 60.1463 19.274L61.3388 17.6148Z" fill="#1A535C"/>
<path d="M62.7555 35.6018L60.8166 38.3722L56.8833 32.3851L58.3111 31.4814L62.7555 35.6018ZM62.7555 35.6018L63.3592 38.3722L65.35 34.1166L64.6074 32.824L62.7555 35.6018Z" fill="#F2F2F2"/>
<path d="M63.1611 37.4648L62.7556 38.5963L64.4371 45.1944C64.4371 45.1944 63.0074 55.7611 62.8389 55.2092C62.6704 54.6574 59.65 44.7463 59.65 44.7463L61.6556 38.624L61.4593 37.4537L62.7556 35.6018L63.1611 37.4648Z" fill="#88D18A"/>
<path d="M94.037 59.776C94.3945 59.276 95.4685 57.9371 95.4685 57.9371L98.1871 59.776L96.3278 60.9926L94.037 59.776ZM99.1241 56.0667C99.1241 56.0667 97.7315 55.3908 96.7963 55.3315C95.8611 55.2723 94.6296 56.6037 94.6296 56.6037C94.6296 56.6037 94.6685 56.8426 95.1667 56.8426C95.663 56.8426 96.6574 56.3648 96.6574 56.3648L99.1667 57.4167L99.1241 56.0667Z" fill="#FFE3CA"/>
<path d="M169.859 0.401855H148.228C143.944 0.401855 140.441 3.90371 140.441 8.18334C140.441 11.1741 142.152 13.7815 144.643 15.0833L144.17 17.3037C144.17 17.3037 147.665 15.9648 148.228 15.9648H169.859C174.143 15.9648 177.646 12.463 177.646 8.18334C177.646 3.90371 174.143 0.401855 169.859 0.401855Z" fill="#3BA99C"/>
<path d="M171.665 2.4259H150.033C145.75 2.4259 142.246 5.92775 142.246 10.2074C142.246 13.1981 143.957 15.8055 146.448 17.1074L145.976 19.3278C145.976 19.3278 149.47 17.9889 150.033 17.9889H171.665C175.948 17.9889 179.452 14.487 179.452 10.2074C179.452 5.92775 175.948 2.4259 171.665 2.4259Z" stroke="#3BA99C" stroke-miterlimit="10"/>
<path d="M52.5538 5.98889H28.9038C27.9204 5.98889 27.1149 6.79445 27.1149 7.77778V18.8907C27.1149 19.8741 27.9204 20.6796 28.9038 20.6796H46.7556L50.0686 23.1482L48.6741 20.6796H52.5556C53.5389 20.6796 54.3445 19.8741 54.3445 18.8907V7.77778C54.3445 6.79445 53.5389 5.98889 52.5538 5.98889Z" fill="#CCE9FF"/>
<path d="M51.9074 7.14075H28.2556C27.2722 7.14075 26.4667 7.9463 26.4667 8.92964V20.0426C26.4667 21.0259 27.2722 21.8315 28.2556 21.8315H46.1074L49.4204 24.3L48.0259 21.8315H51.9074C52.8907 21.8315 53.6963 21.0259 53.6963 20.0426V8.92964C53.6963 7.9463 52.8907 7.14075 51.9074 7.14075Z" stroke="#CCE9FF" stroke-miterlimit="10"/>
<path d="M23.2056 135.485C27.2204 135.485 28.9148 132.28 29.5815 128.878C30.3352 125.041 29.7815 120.957 29.7815 120.957H16.6297C16.6297 120.957 16.6093 121.113 16.5797 121.391C16.3352 123.806 15.5426 135.485 23.2056 135.485Z" fill="#B6E7FF"/>
<path d="M16.6296 120.957C16.6296 121.244 19.5741 121.478 23.2074 121.478C26.8389 121.478 29.7852 121.244 29.7852 120.957C29.7852 120.67 26.8407 120.437 23.2074 120.437C19.5741 120.437 16.6296 120.67 16.6296 120.957Z" fill="#85DDFF"/>
<path d="M5.39624 84.4926C5.39624 84.4926 12.3333 95.0463 16.4944 101.487C20.6555 107.928 21.7462 109.265 22.2407 111.346C22.737 113.428 23.1814 121.106 23.1814 121.106H23.4888C23.4888 121.106 23.3814 114.587 23.0074 112.394C22.6444 110.274 23.0333 109.513 23.3314 107.283C23.6296 105.054 24.0259 101.487 21.7703 99.0092C19.5166 96.5315 20.1111 94.1037 19.3185 92.4703C18.5259 90.8352 12.3814 88.8537 11.5888 87.1685C10.7962 85.4833 7.32957 84.4426 5.39624 84.4926Z" fill="#3BA99C"/>
<path d="M5.39624 84.4926C5.39624 84.4926 7.57587 86.9703 9.06291 87.8129C10.5499 88.6555 11.2425 87.9111 12.3814 89.9426C13.5203 91.974 13.5648 92.8666 14.6074 93.9055C15.6499 94.9463 16.8888 94.9963 16.9888 97.274C17.0888 99.5537 16.4944 101.485 16.4944 101.485C16.4944 101.485 5.84254 85.037 5.39624 84.4926Z" fill="#88D18A"/>
<path d="M22.6333 121.106H22.3222C22.3222 121.106 22.2296 118.996 21.3907 117.972C20.8499 117.311 18.5536 116.561 16.2851 115.661C15.0351 115.167 13.7944 114.626 12.8573 114.03C10.2185 112.354 7.70364 106.954 7.48883 105.991C7.4129 105.656 7.37957 105.452 7.38142 105.313V105.309C7.38698 105.05 7.51475 105.011 7.73698 104.75C7.84438 104.624 8.16475 104.667 8.55735 104.787C9.69438 105.133 10.6555 105.913 11.2499 106.943C11.7999 107.894 12.6796 109.085 13.7573 109.374C15.6203 109.87 15.4648 110.18 16.1518 112.074C16.837 113.969 18.5685 114.278 20.7407 116.511C22.9129 118.746 22.6333 121.106 22.6333 121.106Z" fill="#3BA99C"/>
<path d="M16.2851 115.661C15.0351 115.167 13.7944 114.626 12.8573 114.03C10.2185 112.354 7.70364 106.954 7.48883 105.991C7.4129 105.656 7.37957 105.452 7.38142 105.313C7.38883 105.376 7.51105 106.232 8.88698 106.8C10.3129 107.389 10.5925 107.389 10.7796 108.289C10.9666 109.189 11.1222 110.152 11.8666 110.337C12.6111 110.524 13.0777 109.685 13.6648 111.05C14.2555 112.415 14.537 112.882 15.0777 113.067C15.6203 113.254 16.0314 112.974 16.1518 114.03C16.224 114.674 16.2648 115.285 16.2851 115.661Z" fill="#88D18A"/>
<path d="M24.9148 121.106H25.2833C25.2833 121.106 26.0037 108.041 26.9944 106.828C27.6333 106.045 29.7444 104.643 32.4333 103.576C33.9129 102.989 35.3852 102.35 36.4944 101.645C39.6203 99.6593 42.5981 93.263 42.8537 92.1223C42.9444 91.726 42.9833 91.4852 42.9815 91.3186V91.3149C42.974 91.0075 42.8222 90.9612 42.5611 90.6538C42.4352 90.5038 42.0537 90.5556 41.5889 90.6982C40.2407 91.1093 39.1037 92.0315 38.4 93.2519C37.7481 94.3797 36.7055 95.7908 35.4296 96.1315C33.224 96.7204 33.4074 97.0871 32.5926 99.3297C31.7815 101.572 29.7296 101.939 27.1574 104.585C24.5833 107.232 24.9148 121.106 24.9148 121.106Z" fill="#3BA99C"/>
<path d="M32.4333 103.576C33.913 102.989 35.3852 102.35 36.4945 101.644C39.6204 99.6592 42.5982 93.2629 42.8537 92.1222C42.9445 91.7259 42.9834 91.4851 42.9815 91.3185C42.9722 91.3944 42.8278 92.4055 41.2 93.0777C39.5111 93.774 39.1796 93.774 38.9593 94.8426C38.7389 95.9074 38.5537 97.0481 37.6722 97.2685C36.7908 97.4889 36.2389 96.4963 35.5408 98.1129C34.8408 99.7296 34.5093 100.281 33.8667 100.502C33.2241 100.722 32.7371 100.391 32.5945 101.643C32.5056 102.407 32.4574 103.131 32.4333 103.576Z" fill="#88D18A"/>
<path d="M23.2056 135.485C27.2204 135.485 28.9148 132.28 29.5815 128.878C25.6463 127.385 20.6908 124.994 16.5797 121.391C16.3352 123.806 15.5426 135.485 23.2056 135.485Z" fill="#CCE9FF"/>
<path d="M177.119 135.976C179.776 135.976 180.896 133.854 181.339 131.602C181.837 129.063 181.472 126.359 181.472 126.359H172.767C172.767 126.359 172.754 126.463 172.733 126.646C172.57 128.246 172.046 135.976 177.119 135.976Z" fill="#B6E7FF"/>
<path d="M172.765 126.361C172.765 126.552 174.713 126.705 177.118 126.705C179.522 126.705 181.472 126.552 181.472 126.361C181.472 126.17 179.524 126.017 177.118 126.017C174.715 126.017 172.765 126.17 172.765 126.361Z" fill="#85DDFF"/>
<path d="M162.843 97.45C162.843 97.45 168.339 105.811 171.635 110.915C174.933 116.019 175.796 117.078 176.189 118.726C176.581 120.374 176.935 126.459 176.935 126.459H177.367C177.367 126.459 177.641 121.317 177.131 119.63C176.62 117.943 176.817 117.274 177.054 115.507C177.289 113.741 177.604 110.915 175.817 108.952C174.031 106.989 174.502 105.067 173.874 103.77C173.246 102.474 168.378 100.906 167.75 99.5704C167.122 98.2352 164.374 97.4112 162.843 97.45Z" fill="#3BA99C"/>
<path d="M164.044 97.45C164.044 97.45 165.772 99.4129 166.95 100.08C168.128 100.746 168.678 100.157 169.58 101.767C170.483 103.376 170.517 104.083 171.344 104.907C172.17 105.731 173.152 105.77 173.231 107.576C173.309 109.381 172.839 110.913 172.839 110.913C172.839 110.913 164.398 97.8814 164.044 97.45Z" fill="#88D18A"/>
<path d="M178.763 126.361L179.078 126.267C179.078 126.267 178.531 124.104 179.07 122.813C179.417 121.98 181.513 120.524 183.537 118.926C184.652 118.046 185.744 117.122 186.513 116.235C188.676 113.739 189.581 107.511 189.509 106.47C189.485 106.107 189.457 105.893 189.413 105.752L189.411 105.748C189.328 105.487 189.185 105.487 188.881 105.291C188.735 105.194 188.422 105.337 188.063 105.578C187.017 106.274 186.281 107.354 185.991 108.576C185.722 109.707 185.193 111.18 184.191 111.796C182.457 112.865 182.707 113.13 182.585 115.256C182.467 117.38 180.807 118.219 179.287 121.139C177.765 124.057 178.763 126.361 178.763 126.361Z" fill="#3BA99C"/>
<path d="M183.537 118.924C184.652 118.044 185.744 117.12 186.513 116.233C188.676 113.737 189.581 107.509 189.509 106.469C189.485 106.106 189.457 105.891 189.413 105.75C189.424 105.817 189.559 106.719 188.341 107.711C187.076 108.739 186.793 108.824 186.878 109.793C186.963 110.759 187.096 111.781 186.398 112.196C185.7 112.611 184.976 111.904 184.794 113.463C184.611 115.024 184.469 115.58 183.976 115.933C183.483 116.285 182.983 116.128 183.18 117.233C183.3 117.906 183.444 118.537 183.537 118.924Z" fill="#88D18A"/>
<path d="M177.119 135.976C179.776 135.976 180.896 133.854 181.339 131.602C178.735 130.615 175.454 129.031 172.733 126.646C172.57 128.246 172.046 135.976 177.119 135.976Z" fill="#CCE9FF"/>
</svg>
