<svg width="73" height="65" viewBox="0 0 73 65" fill="none" xmlns="http://www.w3.org/2000/svg">
<path d="M0 65L10.7411 0H38.7943C43.7225 0 47.7556 0.666531 50.8938 1.99959C54.053 3.33254 56.2853 5.21572 57.5911 7.64901C58.918 10.0822 59.3076 12.9493 58.7601 16.25C58.3389 18.6198 57.4332 20.7886 56.0432 22.7564C54.6742 24.703 52.9367 26.3534 50.8306 27.7075C48.7455 29.0406 46.4184 29.961 43.8489 30.4687L43.7225 31.1035C46.5025 31.1882 48.9246 31.8865 50.9886 33.1982C53.0525 34.489 54.5689 36.2875 55.5377 38.5937C56.5065 40.879 56.7382 43.545 56.2327 46.5919C55.643 50.1465 54.2003 53.3098 51.9047 56.0815C49.609 58.8534 46.6289 61.0327 42.9643 62.6196C39.2997 64.2065 35.1296 65 30.4541 65H0ZM19.9658 50.9082H28.1796C31.086 50.9082 33.371 50.3475 35.0348 49.2261C36.7197 48.1047 37.7201 46.4649 38.036 44.3066C38.2888 42.7832 38.1624 41.4926 37.6569 40.4346C37.1516 39.3767 36.2985 38.5726 35.098 38.0225C33.8976 37.4724 32.3918 37.1973 30.5805 37.1973H22.114L19.9658 50.9082ZM24.0094 26.2793H31.2124C32.7287 26.2793 34.1188 26.036 35.3824 25.5493C36.6461 25.0627 37.6885 24.3539 38.5099 23.4229C39.3313 22.4919 39.8473 21.3705 40.058 20.0586C40.3738 18.0274 39.8894 16.4828 38.6047 15.4249C37.3411 14.3669 35.6351 13.8379 33.4869 13.8379H26.0314L24.0094 26.2793Z" fill="#3BA99C"/>
<path d="M49.2289 46.1671V65H39V32.4241H48.7487V38.1715H49.1804C49.997 36.277 51.3658 34.7782 53.2867 33.6754C55.2077 32.5585 57.5369 32 60.2736 32C62.8352 32 65.0682 32.4949 66.9727 33.4846C68.8781 34.4743 70.3587 35.8882 71.4154 37.7262C72.4712 39.5501 73 41.7275 73 44.2583V65H62.771V45.8701C62.7866 43.8766 62.2111 42.3213 61.0425 41.2044C59.874 40.0732 58.2651 39.5077 56.2158 39.5077C54.8393 39.5077 53.6231 39.7693 52.5664 40.2924C51.5261 40.8156 50.7095 41.579 50.1175 42.5829C49.541 43.5726 49.2445 44.7673 49.2289 46.1671Z" fill="#1A535C"/>
</svg>
