<svg width="28" height="28" viewBox="0 0 28 28" fill="none" xmlns="http://www.w3.org/2000/svg">
<rect x="2" y="2" width="24" height="24" rx="12" fill="#1A535C"/>
<path d="M22.4828 12.6516L22.3945 12.277H14.2523V15.723H19.1172C18.6121 18.1215 16.2684 19.384 14.3539 19.384C12.9609 19.384 11.4926 18.798 10.5207 17.8562C10.0079 17.3514 9.59979 16.7504 9.31961 16.0876C9.03943 15.4248 8.89272 14.7133 8.88789 13.9937C8.88789 12.5422 9.54023 11.0902 10.4895 10.1352C11.4387 9.18008 12.8723 8.6457 14.2977 8.6457C15.9301 8.6457 17.1 9.5125 17.5375 9.90781L19.9863 7.47187C19.268 6.84062 17.2945 5.25 14.2188 5.25C11.8457 5.25 9.57031 6.15898 7.90703 7.8168C6.26562 9.44922 5.41602 11.8098 5.41602 14C5.41602 16.1902 6.21992 18.4328 7.81055 20.0781C9.51016 21.8328 11.9172 22.75 14.3957 22.75C16.6508 22.75 18.7883 21.8664 20.3117 20.2633C21.8094 18.6852 22.584 16.5016 22.584 14.2125C22.584 13.2488 22.4871 12.6766 22.4828 12.6516Z" fill="#FDFDFD"/>
<rect x="2" y="2" width="24" height="24" rx="12" stroke="#1A535C" stroke-width="4"/>
</svg>
