<svg width="248" height="76" viewBox="0 0 248 76" fill="none" xmlns="http://www.w3.org/2000/svg">
<path d="M175.5 16H187.494V25.5L179 31.9545H187.494V74.5H175.5V16ZM208.94 49.9034V74.5H197.14V31.9545H208.386V39.4609H208.884C209.826 36.9865 211.405 35.0291 213.621 33.5888C215.837 32.13 218.524 31.4006 221.681 31.4006C224.636 31.4006 227.212 32.0469 229.409 33.3395C231.607 34.6321 233.315 36.4787 234.534 38.8793C235.752 41.2614 236.362 44.1051 236.362 47.4105V74.5H224.562V49.5156C224.58 46.9119 223.916 44.8807 222.568 43.4219C221.22 41.9446 219.364 41.206 217 41.206C215.412 41.206 214.009 41.5476 212.79 42.2308C211.59 42.9141 210.648 43.9112 209.965 45.2223C209.3 46.5149 208.958 48.0753 208.94 49.9034Z" fill="#1A535C"/>
<path d="M0.11084 75L9.52845 18.2727H34.125C38.446 18.2727 41.9822 18.8544 44.7337 20.0178C47.5036 21.1811 49.4609 22.8246 50.6058 24.9482C51.7692 27.0717 52.1108 29.5739 51.6307 32.4545C51.2614 34.5227 50.4673 36.4155 49.2486 38.1328C48.0483 39.8317 46.5249 41.272 44.6783 42.4538C42.8501 43.6172 40.8097 44.4205 38.5568 44.8636L38.446 45.4176C40.8835 45.4915 43.0071 46.1009 44.8168 47.2457C46.6264 48.3722 47.956 49.9418 48.8054 51.9545C49.6548 53.9489 49.858 56.2756 49.4148 58.9347C48.8977 62.0369 47.6328 64.7976 45.62 67.2166C43.6072 69.6357 40.9943 71.5376 37.7812 72.9226C34.5682 74.3075 30.9119 75 26.8125 75H0.11084ZM17.6165 62.7017H24.8182C27.3665 62.7017 29.37 62.2124 30.8288 61.2337C32.3061 60.255 33.1832 58.8239 33.4602 56.9403C33.6818 55.6108 33.571 54.4844 33.1278 53.5611C32.6847 52.6378 31.9368 51.9361 30.8842 51.456C29.8317 50.9759 28.5114 50.7358 26.9233 50.7358H19.5L17.6165 62.7017ZM21.1619 41.2074H27.4773C28.8068 41.2074 30.0256 40.995 31.1335 40.5703C32.2415 40.1456 33.1555 39.527 33.8757 38.7145C34.5959 37.902 35.0483 36.9233 35.233 35.7784C35.5099 34.0057 35.0852 32.6577 33.9588 31.7344C32.8509 30.8111 31.3551 30.3494 29.4716 30.3494H22.9347L21.1619 41.2074ZM52.4339 75L59.5249 32.4545H74.8146L67.7237 75H52.4339ZM67.8345 28.0227C65.7663 28.0227 64.0952 27.3395 62.821 25.973C61.5469 24.5881 61.076 22.9446 61.4084 21.0426C61.7408 19.1037 62.7564 17.4602 64.4553 16.1122C66.1541 14.7457 68.0376 14.0625 70.1058 14.0625C72.1925 14.0625 73.8544 14.7457 75.0916 16.1122C76.3288 17.4602 76.7905 19.1037 76.4766 21.0426C76.1811 22.9446 75.1839 24.5881 73.4851 25.973C71.8047 27.3395 69.9212 28.0227 67.8345 28.0227ZM76.068 75L77.3975 66.5795L99.6674 44.3097L99.7782 44.0881H81.8294L83.8237 32.4545H119.832L118.392 41.7614L97.8947 63.1449L97.7839 63.3665H115.4L113.517 75H76.068ZM122.457 75L123.786 66.5795L146.056 44.3097L146.167 44.0881H128.218L130.212 32.4545H166.221L164.781 41.7614L144.283 63.1449L144.173 63.3665H161.789L159.906 75H122.457Z" fill="#3BA99C"/>
</svg>
